<svg width="84" height="51" fill="none" xmlns="http://www.w3.org/2000/svg"><path d="M3.038 20.362h-.81a2.229 2.229 0 0 0 0 4.457h.81a2.229 2.229 0 0 0 0-4.457ZM21.57 24.82a2.229 2.229 0 0 0 0-4.458H9.204a2.229 2.229 0 0 0 0 4.457h12.368ZM10.578 16.547h.8a2.228 2.228 0 1 0 0-4.458h-.8a2.229 2.229 0 0 0 0 4.458ZM24.008 12.09h-6.464a2.229 2.229 0 1 0 0 4.457h6.464a2.228 2.228 0 1 0 0-4.458ZM11.388 28.636h-.81a2.229 2.229 0 0 0 0 4.457h.81a2.228 2.228 0 1 0 0-4.457ZM24.008 28.636h-6.454a2.229 2.229 0 0 0 0 4.457h6.454a2.228 2.228 0 1 0 0-4.457Z" fill="#111"/><path d="m83.337 24.514-10.696-11.7a2.228 2.228 0 0 0-1.645-.725H58.35V2.62c0-1.23-.998-2.228-2.229-2.228H15.508a2.229 2.229 0 0 0 0 4.457h38.384v35.487h-19.22c-.963-3.234-3.96-5.599-7.502-5.599s-6.54 2.365-7.502 5.6h-4.16a2.228 2.228 0 1 0 0 4.456h4.16c.961 3.233 3.96 5.599 7.502 5.599 3.541 0 6.54-2.366 7.502-5.599H61.404c.962 3.233 3.961 5.599 7.502 5.599 3.542 0 6.54-2.366 7.503-5.599h5.283c1.23 0 2.228-.998 2.228-2.229V26.017c.001-.556-.208-1.093-.583-1.503ZM27.17 45.934a3.374 3.374 0 0 1-3.37-3.37 3.374 3.374 0 0 1 3.37-3.37 3.374 3.374 0 0 1 3.37 3.37 3.374 3.374 0 0 1-3.37 3.37Zm41.736 0a3.374 3.374 0 0 1-3.37-3.37 3.374 3.374 0 0 1 3.37-3.37 3.375 3.375 0 0 1 3.371 3.37 3.374 3.374 0 0 1-3.37 3.37Zm7.503-5.598c-.962-3.234-3.96-5.6-7.502-5.6s-6.54 2.366-7.503 5.6H58.35v-23.79h11.664l6.621 7.243H64.012a2.228 2.228 0 0 0 0 4.457h15.452v12.09h-3.055Z" fill="#111"/></svg>