<svg width="60" height="50" fill="none" xmlns="http://www.w3.org/2000/svg"><path d="M17.223 32.625h10.19a1.592 1.592 0 1 0 0-3.184h-6.347l5.956-5.956a6.726 6.726 0 0 0 1.983-4.787 6.726 6.726 0 0 0-1.983-4.787 6.725 6.725 0 0 0-4.787-1.983 6.725 6.725 0 0 0-4.787 1.983 1.592 1.592 0 1 0 2.251 2.251 3.562 3.562 0 0 1 2.536-1.05c.958 0 1.858.373 2.536 1.05a3.56 3.56 0 0 1 1.05 2.536c0 .958-.373 1.859-1.05 2.536l-8.674 8.673a1.592 1.592 0 0 0 1.126 2.718Z" fill="#111"/><path d="M42.725 29.441h-1.353v-3.197a1.592 1.592 0 0 0-3.184 0v3.197h-3.812l6.856-15.268a1.592 1.592 0 0 0-2.904-1.305l-7.865 17.513a1.593 1.593 0 0 0 1.453 2.244h6.272v3.198a1.592 1.592 0 1 0 3.184 0v-3.198h1.353a1.592 1.592 0 1 0 0-3.184Z" fill="#333"/><path d="M59.735 23.877a1.592 1.592 0 0 0-1.378-.797h-3.763c-.38-5.99-2.892-11.57-7.175-15.853A24.51 24.51 0 0 0 29.974.001a1.592 1.592 0 1 0 0 3.184c11.313 0 20.612 8.788 21.429 19.896H47.75a1.592 1.592 0 0 0-1.379 2.388l5.303 9.185a1.592 1.592 0 0 0 2.757 0l5.303-9.185c.284-.493.284-1.1 0-1.593Zm-6.681 6.796-2.546-4.409H55.6l-2.545 4.41ZM25.007 3.184c.419 0 .83-.17 1.126-.467.296-.296.466-.706.466-1.125 0-.42-.17-.83-.466-1.125A1.6 1.6 0 0 0 25.007 0c-.42 0-.83.17-1.126.467a1.603 1.603 0 0 0-.466 1.125c0 .419.17.83.466 1.125.297.297.706.467 1.126.467ZM20.231 3.184c.419 0 .83-.17 1.126-.467a1.6 1.6 0 0 0 .466-1.125c0-.42-.17-.83-.466-1.125A1.6 1.6 0 0 0 20.23 0a1.6 1.6 0 0 0-1.125.467 1.598 1.598 0 0 0-.467 1.125c0 .419.17.83.467 1.125.296.297.707.467 1.125.467ZM29.974 46.159a21.348 21.348 0 0 1-15.194-6.293c-3.68-3.681-5.861-8.463-6.235-13.603h3.654a1.592 1.592 0 0 0 1.342-2.448l-5.268-9.124a1.591 1.591 0 0 0-2.757 0L.213 23.876a1.593 1.593 0 0 0 1.379 2.388h3.763c.38 5.99 2.891 11.57 7.174 15.853 4.66 4.66 10.855 7.226 17.445 7.226a1.592 1.592 0 0 0 0-3.184ZM6.895 18.67l2.546 4.408H4.35l2.545-4.408ZM34.942 46.158c-.42 0-.83.171-1.126.467a1.605 1.605 0 0 0-.466 1.125c0 .42.17.83.466 1.126.296.297.707.467 1.126.467.42 0 .829-.17 1.126-.467.296-.296.465-.706.465-1.126 0-.418-.17-.829-.465-1.125a1.608 1.608 0 0 0-1.126-.467ZM39.717 46.158c-.42 0-.83.171-1.125.467a1.6 1.6 0 0 0-.466 1.125c0 .42.17.83.466 1.126a1.6 1.6 0 0 0 1.125.467 1.6 1.6 0 0 0 1.126-.467c.296-.296.467-.706.467-1.126 0-.418-.17-.829-.467-1.125a1.606 1.606 0 0 0-1.126-.467Z" fill="#111"/></svg>